{
  "accessors": [
    {
      "bufferView": 2,
      "componentType": 5126,
      "count": 677,
      "max": [
        7.408491134643555,
        -48.03631591796875,
        59.639488220214844
      ],
      "min": [
        -19.12748146057129,
        -68.71700286865234,
        32.10884475708008
      ],
      "type": "VEC3"
    },
    {
      "bufferView": 2,
      "byteOffset": 8124,
      "componentType": 5126,
      "count": 677,
      "max": [
        0.9964594841003418,
        0.996148943901062,
        0.9950172305107117
      ],
      "min": [
        -0.9869254231452942,
        -0.9995867013931274,
        -0.9821343421936035
      ],
      "type": "VEC3"
    },
    {
      "bufferView": 1,
      "componentType": 5126,
      "count": 677,
      "max": [
        1.629621982574463,
        2.8604800701141357
      ],
      "min": [
        -2.9849209785461426,
        0.041836000978946686
      ],
      "type": "VEC2"
    },
    {
      "bufferView": 0,
      "componentType": 5125,
      "count": 2097,
      "type": "SCALAR"
    },
    {
      "bufferView": 2,
      "byteOffset": 16248,
      "componentType": 5126,
      "count": 916,
      "max": [
        6.838294982910156,
        -51.1416015625,
        56.23360824584961
      ],
      "min": [
        -10.132123947143555,
        -67.33434295654297,
        36.98808670043945
      ],
      "type": "VEC3"
    },
    {
      "bufferView": 2,
      "byteOffset": 27240,
      "componentType": 5126,
      "count": 916,
      "max": [
        0.9986345767974854,
        0.992339015007019,
        0.9053499102592468
      ],
      "min": [
        -0.998539388179779,
        -0.999912679195404,
        -0.9945837259292603
      ],
      "type": "VEC3"
    },
    {
      "bufferView": 1,
      "byteOffset": 5416,
      "componentType": 5126,
      "count": 916,
      "max": [
        0.991254985332489,
        0.9956160187721252
      ],
      "min": [
        0.03302299976348877,
        0.2109909951686859
      ],
      "type": "VEC2"
    },
    {
      "bufferView": 0,
      "byteOffset": 8388,
      "componentType": 5125,
      "count": 4170,
      "type": "SCALAR"
    },
    {
      "bufferView": 2,
      "byteOffset": 38232,
      "componentType": 5126,
      "count": 4466,
      "max": [
        39.32794952392578,
        67.93487548828125,
        41.63810348510742
      ],
      "min": [
        -50.114952087402344,
        -95.5828857421875,
        -0.2196359932422638
      ],
      "type": "VEC3"
    },
    {
      "bufferView": 2,
      "byteOffset": 91824,
      "componentType": 5126,
      "count": 4466,
      "max": [
        0.9992967844009399,
        0.9955483675003052,
        0.9999909996986389
      ],
      "min": [
        -0.9998089671134949,
        -0.9998817443847656,
        -0.9999909996986389
      ],
      "type": "VEC3"
    },
    {
      "bufferView": 1,
      "byteOffset": 12744,
      "componentType": 5126,
      "count": 4466,
      "max": [
        0.9948490262031555,
        0.9975529909133911
      ],
      "min": [
        0.005547000095248222,
        0.00483699981123209
      ],
      "type": "VEC2"
    },
    {
      "bufferView": 0,
      "byteOffset": 25068,
      "componentType": 5125,
      "count": 15924,
      "type": "SCALAR"
    }
  ],
  "asset": {
    "extras": {
      "author": "nualis (https://sketchfab.com/nualis)",
      "license": "CC0-1.0 (http://creativecommons.org/publicdomain/zero/1.0/)",
      "source": "https://sketchfab.com/3d-models/full-18-nulookindia-com-viral-video-numloo-b9cc613eeeb34040bc82626d9be81e86",
      "title": "+[FULL 18++] nulookindia .com viral video numloo"
    },
    "generator": "Sketchfab-16.68.0",
    "version": "2.0"
  },
  "bufferViews": [
    {
      "buffer": 0,
      "byteLength": 88764,
      "name": "floatBufferViews",
      "target": 34963
    },
    {
      "buffer": 0,
      "byteLength": 48472,
      "byteOffset": 88764,
      "byteStride": 8,
      "name": "floatBufferViews",
      "target": 34962
    },
    {
      "buffer": 0,
      "byteLength": 145416,
      "byteOffset": 137236,
      "byteStride": 12,
      "name": "floatBufferViews",
      "target": 34962
    }
  ],
  "buffers": [
    {
      "byteLength": 282652,
      "uri": "scene.bin"
    }
  ],
  "images": [
    {
      "uri": "textures/01-Default_baseColor.jpeg"
    },
    {
      "uri": "textures/02-Default_baseColor.jpeg"
    },
    {
      "uri": "textures/03-Default_baseColor.jpeg"
    }
  ],
  "materials": [
    {
      "doubleSided": true,
      "name": "01-Default",
      "pbrMetallicRoughness": {
        "baseColorTexture": {
          "index": 0
        },
        "metallicFactor": 0.0,
        "roughnessFactor": 0.8690834750652058
      }
    },
    {
      "doubleSided": true,
      "name": "02-Default",
      "pbrMetallicRoughness": {
        "baseColorTexture": {
          "index": 1
        },
        "metallicFactor": 0.0,
        "roughnessFactor": 0.99
      }
    },
    {
      "doubleSided": true,
      "name": "03-Default",
      "pbrMetallicRoughness": {
        "baseColorTexture": {
          "index": 2
        },
        "metallicFactor": 0.0,
        "roughnessFactor": 0.99
      }
    }
  ],
  "meshes": [
    {
      "name": "Object_0",
      "primitives": [
        {
          "attributes": {
            "NORMAL": 1,
            "POSITION": 0,
            "TEXCOORD_0": 2
          },
          "indices": 3,
          "material": 0,
          "mode": 4
        }
      ]
    },
    {
      "name": "Object_1",
      "primitives": [
        {
          "attributes": {
            "NORMAL": 5,
            "POSITION": 4,
            "TEXCOORD_0": 6
          },
          "indices": 7,
          "material": 1,
          "mode": 4
        }
      ]
    },
    {
      "name": "Object_2",
      "primitives": [
        {
          "attributes": {
            "NORMAL": 9,
            "POSITION": 8,
            "TEXCOORD_0": 10
          },
          "indices": 11,
          "material": 2,
          "mode": 4
        }
      ]
    }
  ],
  "nodes": [
    {
      "children": [
        1
      ],
      "matrix": [
        1.0,
        0.0,
        0.0,
        0.0,
        0.0,
        2.220446049250313e-16,
        -1.0,
        0.0,
        0.0,
        1.0,
        2.220446049250313e-16,
        0.0,
        0.0,
        0.0,
        0.0,
        1.0
      ],
      "name": "Sketchfab_model"
    },
    {
      "children": [
        2,
        3,
        4
      ],
      "name": "lyingDownFemale01.obj.cleaner.materialmerger.gles"
    },
    {
      "mesh": 0,
      "name": "Object_2"
    },
    {
      "mesh": 1,
      "name": "Object_3"
    },
    {
      "mesh": 2,
      "name": "Object_4"
    }
  ],
  "samplers": [
    {
      "magFilter": 9729,
      "minFilter": 9987,
      "wrapS": 10497,
      "wrapT": 10497
    }
  ],
  "scene": 0,
  "scenes": [
    {
      "name": "Sketchfab_Scene",
      "nodes": [
        0
      ]
    }
  ],
  "textures": [
    {
      "sampler": 0,
      "source": 0
    },
    {
      "sampler": 0,
      "source": 1
    },
    {
      "sampler": 0,
      "source": 2
    }
  ]
}
