{
  "accessors": [
    {
      "bufferView": 2,
      "componentType": 5126,
      "count": 4,
      "max": [
        49.84135437011719,
        -2.539520025253296,
        270.4783935546875
      ],
      "min": [
        -49.96209716796875,
        -5.0576171875,
        144.39083862304688
      ],
      "type": "VEC3"
    },
    {
      "bufferView": 2,
      "byteOffset": 48,
      "componentType": 5126,
      "count": 4,
      "max": [
        0.0,
        0.9998006820678711,
        0.019967040047049522
      ],
      "min": [
        0.0,
        0.9998006820678711,
        0.019967040047049522
      ],
      "type": "VEC3"
    },
    {
      "bufferView": 1,
      "componentType": 5126,
      "count": 4,
      "max": [
        0.0,
        1.0
      ],
      "min": [
        -1.0,
        0.0
      ],
      "type": "VEC2"
    },
    {
      "bufferView": 0,
      "componentType": 5125,
      "count": 6,
      "type": "SCALAR"
    },
    {
      "bufferView": 2,
      "byteOffset": 96,
      "componentType": 5126,
      "count": 4,
      "max": [
        49.84135437011719,
        -3.693603992462158,
        270.4607849121094
      ],
      "min": [
        -49.96209716796875,
        -6.211699962615967,
        144.37322998046875
      ],
      "type": "VEC3"
    },
    {
      "bufferView": 2,
      "byteOffset": 144,
      "componentType": 5126,
      "count": 4,
      "max": [
        0.0,
        -0.9998006820678711,
        -0.019967028871178627
      ],
      "min": [
        0.0,
        -0.9998006820678711,
        -0.019967028871178627
      ],
      "type": "VEC3"
    },
    {
      "bufferView": 1,
      "byteOffset": 32,
      "componentType": 5126,
      "count": 4,
      "max": [
        1.0,
        1.0
      ],
      "min": [
        0.0,
        0.0
      ],
      "type": "VEC2"
    },
    {
      "bufferView": 0,
      "byteOffset": 24,
      "componentType": 5125,
      "count": 6,
      "type": "SCALAR"
    },
    {
      "bufferView": 2,
      "byteOffset": 192,
      "componentType": 5126,
      "count": 24,
      "max": [
        63.653778076171875,
        -0.3818970024585724,
        284.99993896484375
      ],
      "min": [
        -63.846221923828125,
        -4.911406993865967,
        129.99996948242188
      ],
      "type": "VEC3"
    },
    {
      "bufferView": 2,
      "byteOffset": 480,
      "componentType": 5126,
      "count": 24,
      "max": [
        1.0,
        0.9998006820678711,
        0.9998835921287537
      ],
      "min": [
        -1.0,
        -0.015255779959261417,
        -0.999883770942688
      ],
      "type": "VEC3"
    },
    {
      "bufferView": 1,
      "byteOffset": 64,
      "componentType": 5126,
      "count": 24,
      "max": [
        8.800000190734863,
        12.5
      ],
      "min": [
        -10.0,
        0.0
      ],
      "type": "VEC2"
    },
    {
      "bufferView": 0,
      "byteOffset": 48,
      "componentType": 5125,
      "count": 48,
      "type": "SCALAR"
    },
    {
      "bufferView": 2,
      "byteOffset": 768,
      "componentType": 5126,
      "count": 64,
      "max": [
        63.653778076171875,
        -0.3818970024585724,
        284.99993896484375
      ],
      "min": [
        -63.846221923828125,
        -7.88189697265625,
        129.99996948242188
      ],
      "type": "VEC3"
    },
    {
      "bufferView": 2,
      "byteOffset": 1536,
      "componentType": 5126,
      "count": 64,
      "max": [
        0.6109833121299744,
        0.5153976678848267,
        0.6198830604553223
      ],
      "min": [
        -0.6110212206840515,
        -0.9984002113342285,
        -0.6026972532272339
      ],
      "type": "VEC3"
    },
    {
      "bufferView": 1,
      "byteOffset": 256,
      "componentType": 5126,
      "count": 64,
      "max": [
        1.537716031074524,
        1.0
      ],
      "min": [
        -0.7486410140991211,
        -0.01527199987322092
      ],
      "type": "VEC2"
    },
    {
      "bufferView": 0,
      "byteOffset": 240,
      "componentType": 5125,
      "count": 120,
      "type": "SCALAR"
    }
  ],
  "asset": {
    "extras": {
      "author": "nualis (https://sketchfab.com/nualis)",
      "license": "CC0-1.0 (http://creativecommons.org/publicdomain/zero/1.0/)",
      "source": "https://sketchfab.com/3d-models/india-viralmanohar-lal-dhakad-and-mayuri-mish-32f3dd6a842a4e7fab4243769f6b6614",
      "title": "India Viral–manohar Lal Dhakad And Mayuri Mish"
    },
    "generator": "Sketchfab-16.68.0",
    "version": "2.0"
  },
  "bufferViews": [
    {
      "buffer": 0,
      "byteLength": 720,
      "name": "floatBufferViews",
      "target": 34963
    },
    {
      "buffer": 0,
      "byteLength": 768,
      "byteOffset": 720,
      "byteStride": 8,
      "name": "floatBufferViews",
      "target": 34962
    },
    {
      "buffer": 0,
      "byteLength": 2304,
      "byteOffset": 1488,
      "byteStride": 12,
      "name": "floatBufferViews",
      "target": 34962
    }
  ],
  "buffers": [
    {
      "byteLength": 3792,
      "uri": "scene.bin"
    }
  ],
  "images": [
    {
      "uri": "textures/Canvas_baseColor.jpeg"
    },
    {
      "uri": "textures/Frame_baseColor.jpeg"
    }
  ],
  "materials": [
    {
      "doubleSided": true,
      "name": "Back",
      "pbrMetallicRoughness": {
        "baseColorFactor": [
          0.56,
          0.44,
          0.31,
          1.0
        ],
        "metallicFactor": 0.0
      }
    },
    {
      "doubleSided": true,
      "name": "Canvas",
      "pbrMetallicRoughness": {
        "baseColorTexture": {
          "index": 0
        },
        "metallicFactor": 0.0
      }
    },
    {
      "doubleSided": true,
      "name": "Frame",
      "pbrMetallicRoughness": {
        "baseColorTexture": {
          "index": 1
        },
        "metallicFactor": 0.0,
        "roughnessFactor": 0.6636414338985142
      }
    },
    {
      "doubleSided": true,
      "name": "Frame_back",
      "pbrMetallicRoughness": {
        "baseColorFactor": [
          0.56,
          0.44,
          0.31,
          1.0
        ],
        "metallicFactor": 0.0
      }
    }
  ],
  "meshes": [
    {
      "name": "Object_0",
      "primitives": [
        {
          "attributes": {
            "NORMAL": 1,
            "POSITION": 0,
            "TEXCOORD_0": 2
          },
          "indices": 3,
          "material": 0,
          "mode": 4
        }
      ]
    },
    {
      "name": "Object_1",
      "primitives": [
        {
          "attributes": {
            "NORMAL": 5,
            "POSITION": 4,
            "TEXCOORD_0": 6
          },
          "indices": 7,
          "material": 1,
          "mode": 4
        }
      ]
    },
    {
      "name": "Object_2",
      "primitives": [
        {
          "attributes": {
            "NORMAL": 9,
            "POSITION": 8,
            "TEXCOORD_0": 10
          },
          "indices": 11,
          "material": 3,
          "mode": 4
        }
      ]
    },
    {
      "name": "Object_3",
      "primitives": [
        {
          "attributes": {
            "NORMAL": 13,
            "POSITION": 12,
            "TEXCOORD_0": 14
          },
          "indices": 15,
          "material": 2,
          "mode": 4
        }
      ]
    }
  ],
  "nodes": [
    {
      "children": [
        1
      ],
      "matrix": [
        1.0,
        0.0,
        0.0,
        0.0,
        0.0,
        2.220446049250313e-16,
        -1.0,
        0.0,
        0.0,
        1.0,
        2.220446049250313e-16,
        0.0,
        0.0,
        0.0,
        0.0,
        1.0
      ],
      "name": "Sketchfab_model"
    },
    {
      "children": [
        2,
        3,
        4,
        5
      ],
      "name": "frame_vertical.obj.cleaner.materialmerger.gles"
    },
    {
      "mesh": 0,
      "name": "Object_2"
    },
    {
      "mesh": 1,
      "name": "Object_3"
    },
    {
      "mesh": 2,
      "name": "Object_4"
    },
    {
      "mesh": 3,
      "name": "Object_5"
    }
  ],
  "samplers": [
    {
      "magFilter": 9729,
      "minFilter": 9987,
      "wrapS": 10497,
      "wrapT": 10497
    }
  ],
  "scene": 0,
  "scenes": [
    {
      "name": "Sketchfab_Scene",
      "nodes": [
        0
      ]
    }
  ],
  "textures": [
    {
      "sampler": 0,
      "source": 0
    },
    {
      "sampler": 0,
      "source": 1
    }
  ]
}
