{
  "accessors": [
    {
      "bufferView": 2,
      "componentType": 5126,
      "count": 65532,
      "max": [
        0.05181699991226196,
        0.019798999652266502,
        0.1340160071849823
      ],
      "min": [
        -0.04925600066781044,
        -0.03654899820685387,
        -0.13732899725437164
      ],
      "type": "VEC3"
    },
    {
      "bufferView": 2,
      "byteOffset": 786384,
      "componentType": 5126,
      "count": 65532,
      "max": [
        0.9999779462814331,
        0.9999994039535522,
        0.9999189376831055
      ],
      "min": [
        -0.9999986886978149,
        -0.9999964237213135,
        -0.9999979734420776
      ],
      "type": "VEC3"
    },
    {
      "bufferView": 3,
      "componentType": 5126,
      "count": 65532,
      "max": [
        0.9999990463256836,
        0.999997079372406,
        0.999997079372406,
        1.0
      ],
      "min": [
        -0.9992286562919617,
        -0.9999449253082275,
        -0.9912963509559631,
        -1.0
      ],
      "type": "VEC4"
    },
    {
      "bufferView": 1,
      "componentType": 5126,
      "count": 65532,
      "max": [
        0.8338580131530762,
        0.9813539981842041
      ],
      "min": [
        0.00024399999529123306,
        0.00024399999529123306
      ],
      "type": "VEC2"
    },
    {
      "bufferView": 0,
      "componentType": 5125,
      "count": 372924,
      "type": "SCALAR"
    },
    {
      "bufferView": 2,
      "byteOffset": 1572768,
      "componentType": 5126,
      "count": 42632,
      "max": [
        0.05326800048351288,
        0.019607000052928925,
        0.06264899671077728
      ],
      "min": [
        -0.048622000962495804,
        -0.03615500032901764,
        -0.13728700578212738
      ],
      "type": "VEC3"
    },
    {
      "bufferView": 2,
      "byteOffset": 2084352,
      "componentType": 5126,
      "count": 42632,
      "max": [
        0.9998691082000732,
        0.9999960660934448,
        0.9995163083076477
      ],
      "min": [
        -0.99998939037323,
        -0.9999964237213135,
        -0.9998018145561218
      ],
      "type": "VEC3"
    },
    {
      "bufferView": 3,
      "byteOffset": 1048512,
      "componentType": 5126,
      "count": 42632,
      "max": [
        0.9982752203941345,
        0.9998534321784973,
        0.9999942779541016,
        1.0
      ],
      "min": [
        -0.9982680678367615,
        -0.9994868040084839,
        -0.9879191517829895,
        -1.0
      ],
      "type": "VEC4"
    },
    {
      "bufferView": 1,
      "byteOffset": 524256,
      "componentType": 5126,
      "count": 42632,
      "max": [
        0.9997559785842896,
        0.8833960294723511
      ],
      "min": [
        0.0030610000248998404,
        0.0030159999150782824
      ],
      "type": "VEC2"
    },
    {
      "bufferView": 0,
      "byteOffset": 1491696,
      "componentType": 5125,
      "count": 227076,
      "type": "SCALAR"
    }
  ],
  "asset": {
    "extras": {
      "author": "Cleveland Museum of Art (https://sketchfab.com/clevelandart)",
      "license": "CC0-1.0 (http://creativecommons.org/publicdomain/zero/1.0/)",
      "source": "https://sketchfab.com/3d-models/196741-monk-bearing-offerings-e2642259b1ef41c4b7b40eab47869282",
      "title": "1967.41 Monk Bearing Offerings"
    },
    "generator": "Sketchfab-16.68.0",
    "version": "2.0"
  },
  "bufferViews": [
    {
      "buffer": 0,
      "byteLength": 2400000,
      "name": "floatBufferViews",
      "target": 34963
    },
    {
      "buffer": 0,
      "byteLength": 865312,
      "byteOffset": 2400000,
      "byteStride": 8,
      "name": "floatBufferViews",
      "target": 34962
    },
    {
      "buffer": 0,
      "byteLength": 2595936,
      "byteOffset": 3265312,
      "byteStride": 12,
      "name": "floatBufferViews",
      "target": 34962
    },
    {
      "buffer": 0,
      "byteLength": 1730624,
      "byteOffset": 5861248,
      "byteStride": 16,
      "name": "floatBufferViews",
      "target": 34962
    }
  ],
  "buffers": [
    {
      "byteLength": 7591872,
      "uri": "scene.bin"
    }
  ],
  "extensionsRequired": [
    "KHR_materials_pbrSpecularGlossiness"
  ],
  "extensionsUsed": [
    "KHR_materials_pbrSpecularGlossiness"
  ],
  "images": [
    {
      "uri": "textures/1967.41_Monk_Bearing_Offerings_Mats_diffuse.jpeg"
    },
    {
      "uri": "textures/1967.41_Monk_Bearing_Offerings_Mats_specularGlossiness.png"
    },
    {
      "uri": "textures/1967.41_Monk_Bearing_Offerings_Mats_normal.png"
    }
  ],
  "materials": [
    {
      "doubleSided": true,
      "extensions": {
        "KHR_materials_pbrSpecularGlossiness": {
          "diffuseFactor": [
            1.0,
            1.0,
            1.0,
            1.0
          ],
          "diffuseTexture": {
            "index": 0
          },
          "glossinessFactor": 1.0,
          "specularFactor": [
            1.0,
            1.0,
            1.0
          ],
          "specularGlossinessTexture": {
            "index": 1
          }
        }
      },
      "name": "1967.41_Monk_Bearing_Offerings_Mats",
      "normalTexture": {
        "index": 2
      }
    }
  ],
  "meshes": [
    {
      "name": "Object_0",
      "primitives": [
        {
          "attributes": {
            "NORMAL": 1,
            "POSITION": 0,
            "TANGENT": 2,
            "TEXCOORD_0": 3
          },
          "indices": 4,
          "material": 0,
          "mode": 4
        }
      ]
    },
    {
      "name": "Object_1",
      "primitives": [
        {
          "attributes": {
            "NORMAL": 6,
            "POSITION": 5,
            "TANGENT": 7,
            "TEXCOORD_0": 8
          },
          "indices": 9,
          "material": 0,
          "mode": 4
        }
      ]
    }
  ],
  "nodes": [
    {
      "children": [
        1
      ],
      "matrix": [
        1.0,
        0.0,
        0.0,
        0.0,
        0.0,
        2.220446049250313e-16,
        -1.0,
        0.0,
        0.0,
        1.0,
        2.220446049250313e-16,
        0.0,
        0.0,
        0.0,
        0.0,
        1.0
      ],
      "name": "Sketchfab_model"
    },
    {
      "children": [
        2,
        3
      ],
      "name": "1967.41 Monk Bearing Offerings.obj.cleaner.materialmerger.gles"
    },
    {
      "mesh": 0,
      "name": "Object_2"
    },
    {
      "mesh": 1,
      "name": "Object_3"
    }
  ],
  "samplers": [
    {
      "magFilter": 9729,
      "minFilter": 9987,
      "wrapS": 10497,
      "wrapT": 10497
    }
  ],
  "scene": 0,
  "scenes": [
    {
      "name": "Sketchfab_Scene",
      "nodes": [
        0
      ]
    }
  ],
  "textures": [
    {
      "sampler": 0,
      "source": 0
    },
    {
      "sampler": 0,
      "source": 1
    },
    {
      "sampler": 0,
      "source": 2
    }
  ]
}
