{
  "accessors": [
    {
      "bufferView": 2,
      "componentType": 5126,
      "count": 65532,
      "max": [
        0.09383399784564972,
        0.05741100013256073,
        0.19640499353408813
      ],
      "min": [
        -0.12521100044250488,
        -0.09209900349378586,
        -0.22198399901390076
      ],
      "type": "VEC3"
    },
    {
      "bufferView": 2,
      "byteOffset": 786384,
      "componentType": 5126,
      "count": 65532,
      "max": [
        0.9999781847000122,
        0.9999984502792358,
        0.999894380569458
      ],
      "min": [
        -0.9999948740005493,
        -0.9999877214431763,
        -0.9999525547027588
      ],
      "type": "VEC3"
    },
    {
      "bufferView": 3,
      "componentType": 5126,
      "count": 65532,
      "max": [
        0.9999867677688599,
        0.9999572038650513,
        0.9999997615814209,
        1.0
      ],
      "min": [
        -0.998688817024231,
        -0.9999986886978149,
        -0.999908447265625,
        -1.0
      ],
      "type": "VEC4"
    },
    {
      "bufferView": 1,
      "componentType": 5126,
      "count": 65532,
      "max": [
        0.8943819999694824,
        0.9997559785842896
      ],
      "min": [
        0.00024399999529123306,
        0.00024900000425986946
      ],
      "type": "VEC2"
    },
    {
      "bufferView": 0,
      "componentType": 5125,
      "count": 361674,
      "type": "SCALAR"
    },
    {
      "bufferView": 2,
      "byteOffset": 1572768,
      "componentType": 5126,
      "count": 63726,
      "max": [
        0.09383399784564972,
        0.07141199707984924,
        0.284498006105423
      ],
      "min": [
        -0.12552399933338165,
        -0.09202399849891663,
        -0.2674640119075775
      ],
      "type": "VEC3"
    },
    {
      "bufferView": 2,
      "byteOffset": 2337480,
      "componentType": 5126,
      "count": 63726,
      "max": [
        0.999995231628418,
        0.9999985694885254,
        0.9999204874038696
      ],
      "min": [
        -0.9999948740005493,
        -0.9999284744262695,
        -0.9999920129776001
      ],
      "type": "VEC3"
    },
    {
      "bufferView": 3,
      "byteOffset": 1048512,
      "componentType": 5126,
      "count": 63726,
      "max": [
        0.9999943375587463,
        0.999937117099762,
        0.9999997019767761,
        1.0
      ],
      "min": [
        -0.9995914101600647,
        -0.9998340606689453,
        -0.9999803304672241,
        -1.0
      ],
      "type": "VEC4"
    },
    {
      "bufferView": 1,
      "byteOffset": 524256,
      "componentType": 5126,
      "count": 63726,
      "max": [
        0.9035410284996033,
        0.9980520009994507
      ],
      "min": [
        0.00024399999529123306,
        0.00024399999529123306
      ],
      "type": "VEC2"
    },
    {
      "bufferView": 0,
      "byteOffset": 1446696,
      "componentType": 5125,
      "count": 328326,
      "type": "SCALAR"
    }
  ],
  "asset": {
    "extras": {
      "author": "Cleveland Museum of Art (https://sketchfab.com/clevelandart)",
      "license": "CC0-1.0 (http://creativecommons.org/publicdomain/zero/1.0/)",
      "source": "https://sketchfab.com/3d-models/1943395-adoring-attendant-690856370c234dd6b03db55fd157a607",
      "title": "1943.395 Adoring Attendant"
    },
    "generator": "Sketchfab-16.68.0",
    "version": "2.0"
  },
  "bufferViews": [
    {
      "buffer": 0,
      "byteLength": 2760000,
      "name": "floatBufferViews",
      "target": 34963
    },
    {
      "buffer": 0,
      "byteLength": 1034064,
      "byteOffset": 2760000,
      "byteStride": 8,
      "name": "floatBufferViews",
      "target": 34962
    },
    {
      "buffer": 0,
      "byteLength": 3102192,
      "byteOffset": 3794064,
      "byteStride": 12,
      "name": "floatBufferViews",
      "target": 34962
    },
    {
      "buffer": 0,
      "byteLength": 2068128,
      "byteOffset": 6896256,
      "byteStride": 16,
      "name": "floatBufferViews",
      "target": 34962
    }
  ],
  "buffers": [
    {
      "byteLength": 8964384,
      "uri": "scene.bin"
    }
  ],
  "extensionsRequired": [
    "KHR_materials_pbrSpecularGlossiness"
  ],
  "extensionsUsed": [
    "KHR_materials_pbrSpecularGlossiness"
  ],
  "images": [
    {
      "uri": "textures/1943.395_Adoring_Attendant_from_a_Buddhist_Shrine_Mats_diffuse.jpeg"
    },
    {
      "uri": "textures/1943.395_Adoring_Attendant_from_a_Buddhist_Shrine_Mats_specularGlossiness.png"
    },
    {
      "uri": "textures/1943.395_Adoring_Attendant_from_a_Buddhist_Shrine_Mats_normal.png"
    }
  ],
  "materials": [
    {
      "doubleSided": true,
      "extensions": {
        "KHR_materials_pbrSpecularGlossiness": {
          "diffuseFactor": [
            1.0,
            1.0,
            1.0,
            1.0
          ],
          "diffuseTexture": {
            "index": 0
          },
          "glossinessFactor": 1.0,
          "specularFactor": [
            1.0,
            1.0,
            1.0
          ],
          "specularGlossinessTexture": {
            "index": 1
          }
        }
      },
      "name": "1943.395_Adoring_Attendant_from_a_Buddhist_Shrine_Mats",
      "normalTexture": {
        "index": 2
      }
    }
  ],
  "meshes": [
    {
      "name": "Object_0",
      "primitives": [
        {
          "attributes": {
            "NORMAL": 1,
            "POSITION": 0,
            "TANGENT": 2,
            "TEXCOORD_0": 3
          },
          "indices": 4,
          "material": 0,
          "mode": 4
        }
      ]
    },
    {
      "name": "Object_1",
      "primitives": [
        {
          "attributes": {
            "NORMAL": 6,
            "POSITION": 5,
            "TANGENT": 7,
            "TEXCOORD_0": 8
          },
          "indices": 9,
          "material": 0,
          "mode": 4
        }
      ]
    }
  ],
  "nodes": [
    {
      "children": [
        1
      ],
      "matrix": [
        1.0,
        0.0,
        0.0,
        0.0,
        0.0,
        2.220446049250313e-16,
        -1.0,
        0.0,
        0.0,
        1.0,
        2.220446049250313e-16,
        0.0,
        0.0,
        0.0,
        0.0,
        1.0
      ],
      "name": "Sketchfab_model"
    },
    {
      "children": [
        2,
        3
      ],
      "name": "1943.395 Adoring Attendant from a Buddhist Shrine.obj.cleaner.materialmerger.gles"
    },
    {
      "mesh": 0,
      "name": "Object_2"
    },
    {
      "mesh": 1,
      "name": "Object_3"
    }
  ],
  "samplers": [
    {
      "magFilter": 9729,
      "minFilter": 9987,
      "wrapS": 10497,
      "wrapT": 10497
    }
  ],
  "scene": 0,
  "scenes": [
    {
      "name": "Sketchfab_Scene",
      "nodes": [
        0
      ]
    }
  ],
  "textures": [
    {
      "sampler": 0,
      "source": 0
    },
    {
      "sampler": 0,
      "source": 1
    },
    {
      "sampler": 0,
      "source": 2
    }
  ]
}
